<?xml version="1.0" encoding="UTF-8"?>
<!DOCTYPE svg PUBLIC "-//W3C//DTD SVG 1.1//EN" "http://www.w3.org/Graphics/SVG/1.1/DTD/svg11.dtd">
<svg xmlns="http://www.w3.org/2000/svg" xmlns:xlink="http://www.w3.org/1999/xlink">
    <symbol id="magnifier" viewBox="0 0 14 13">
        <path d="M13.1995 11.4409L10.0583 8.51114C10.9009 7.60763 11.4111 6.4288 11.4111 5.14036C11.4111 2.30421 8.93766 0 5.89963 0C2.85873 0 0.388184 2.30688 0.388184 5.14036C0.388184 7.97385 2.8616 10.2807 5.89963 10.2807C7.28108 10.2807 8.54501 9.80492 9.51374 9.01903L12.655 11.9487C12.7295 12.0182 12.8298 12.0557 12.9272 12.0557C13.0247 12.0557 13.125 12.0209 13.1995 11.9487C13.3485 11.8097 13.3485 11.5799 13.1995 11.4409ZM1.15916 5.14036C1.15916 2.7025 3.28578 0.721736 5.89676 0.721736C8.51062 0.721736 10.6344 2.70517 10.6344 5.14036C10.6344 7.57555 8.51062 9.56167 5.89676 9.56167C3.28578 9.56167 1.15916 7.57823 1.15916 5.14036Z"/>
    </symbol>
    <symbol id="wallet" viewBox="0 0 34 31" fill="none">
        <path d="M29.8542 16.549V9.26514C29.8542 8.71285 29.4065 8.26514 28.8542 8.26514H1.81787C1.26559 8.26514 0.817871 8.71285 0.817871 9.26514V28.5832C0.817871 29.1355 1.26559 29.5832 1.81787 29.5832H28.8542C29.4065 29.5832 29.8542 29.1355 29.8542 28.5832V21.1809" stroke="#0A2973" stroke-width="1.5"/>
        <rect x="20.0752" y="15.8564" width="12.7429" height="6.1351" fill="none" stroke="#0A2973" stroke-width="1.5" stroke-linecap="round" stroke-linejoin="round"/>
        <path d="M15.3862 8.26035L21.8549 1.66895L28.3237 8.26035" stroke="#0A2973" stroke-width="1.5" stroke-linejoin="round"/>
        <path d="M11.6895 8.26035L18.1582 1.66895L20.169 3.71093" stroke="#0A2973" stroke-width="1.5" stroke-linejoin="round"/>
        <path d="M8.09326 8.26035L14.562 1.66895L16.6325 3.63682" stroke="#0A2973" stroke-width="1.5" stroke-linejoin="round"/>
        <ellipse cx="23.5945" cy="18.7553" rx="1.88555" ry="1.92131" fill="#0A2973"/>
    </symbol>
    <symbol id="bell" viewBox="0 0 31 31">
        <path d="M0.871094 26.009L0.448569 25.3893C0.176704 25.5747 0.0574218 25.9156 0.15442 26.2301C0.251419 26.5445 0.542042 26.759 0.871094 26.759V26.009ZM15.3589 1.66943L15.3589 2.41943H15.359L15.3589 1.66943ZM29.8468 26.009V26.759C30.1758 26.759 30.4664 26.5445 30.5634 26.2301C30.6604 25.9156 30.5411 25.5747 30.2693 25.3893L29.8468 26.009ZM15.359 0.919434C12.1708 0.919298 9.84255 1.87329 8.18296 3.42684C6.53893 4.96582 5.62135 7.0273 5.11457 9.1259C4.11353 13.2713 4.66111 17.9229 4.66111 19.497H6.16111C6.16111 17.6549 5.62739 13.3925 6.57266 9.478C7.03905 7.54667 7.85152 5.79176 9.20806 4.52191C10.549 3.26661 12.4919 2.41931 15.3589 2.41943L15.359 0.919434ZM4.66111 19.497C4.66111 20.8998 3.70708 22.3433 2.59601 23.519C2.05762 24.0886 1.51666 24.5595 1.10936 24.8883C0.906303 25.0523 0.737957 25.1797 0.621753 25.2652C0.563687 25.3079 0.51875 25.34 0.489131 25.361C0.474325 25.3714 0.463357 25.3791 0.456503 25.3839C0.453076 25.3862 0.450678 25.3879 0.449344 25.3888C0.448677 25.3893 0.448277 25.3895 0.448146 25.3896C0.448081 25.3897 0.448083 25.3897 0.448153 25.3896C0.448188 25.3896 0.448293 25.3895 0.44831 25.3895C0.448431 25.3894 0.448569 25.3893 0.871094 26.009C1.29362 26.6286 1.29379 26.6285 1.29398 26.6284C1.29407 26.6283 1.29428 26.6282 1.29445 26.6281C1.2948 26.6278 1.29521 26.6276 1.2957 26.6272C1.29666 26.6266 1.29791 26.6257 1.29942 26.6247C1.30245 26.6226 1.30657 26.6197 1.31173 26.6162C1.32206 26.609 1.33658 26.5988 1.35503 26.5858C1.39191 26.5597 1.44452 26.522 1.51059 26.4734C1.64267 26.3763 1.82901 26.2352 2.05158 26.0555C2.49554 25.6971 3.08957 25.1805 3.68619 24.5493C4.84513 23.323 6.16111 21.5106 6.16111 19.497H4.66111ZM0.871094 26.759H15.3589V25.259H0.871094V26.759ZM15.359 2.41943C18.226 2.41931 20.1688 3.26661 21.5098 4.52191C22.8663 5.79176 23.6788 7.54667 24.1452 9.478C25.0905 13.3925 24.5567 17.6549 24.5567 19.497H26.0567C26.0567 17.9229 26.6043 13.2713 25.6033 9.1259C25.0965 7.0273 24.1789 4.96582 22.5349 3.42684C20.8753 1.87329 18.547 0.919298 15.3589 0.919434L15.359 2.41943ZM24.5567 19.497C24.5567 21.5106 25.8727 23.323 27.0317 24.5493C27.6283 25.1805 28.2223 25.6971 28.6663 26.0555C28.8888 26.2352 29.0752 26.3763 29.2073 26.4734C29.2733 26.522 29.3259 26.5597 29.3628 26.5858C29.3813 26.5988 29.3958 26.609 29.4061 26.6162C29.4113 26.6197 29.4154 26.6226 29.4184 26.6247C29.4199 26.6257 29.4212 26.6266 29.4222 26.6272C29.4226 26.6276 29.4231 26.6278 29.4234 26.6281C29.4236 26.6282 29.4238 26.6283 29.4239 26.6284C29.4241 26.6285 29.4242 26.6286 29.8468 26.009C30.2693 25.3893 30.2694 25.3894 30.2695 25.3895C30.2696 25.3895 30.2697 25.3896 30.2697 25.3896C30.2698 25.3897 30.2698 25.3897 30.2697 25.3896C30.2696 25.3895 30.2692 25.3893 30.2685 25.3888C30.2672 25.3879 30.2648 25.3862 30.2613 25.3839C30.2545 25.3791 30.2435 25.3714 30.2287 25.361C30.1991 25.34 30.1542 25.3079 30.0961 25.2652C29.9799 25.1797 29.8115 25.0523 29.6085 24.8883C29.2012 24.5595 28.6602 24.0886 28.1218 23.519C27.0108 22.3433 26.0567 20.8998 26.0567 19.497H24.5567ZM29.8468 25.259H15.3589V26.759H29.8468V25.259Z" fill="#0A2973"/>
        <path d="M15.4002 29.5835C17.4903 29.5835 19.1847 28.1669 19.1847 26.4194H11.6157C11.6157 28.1669 13.3101 29.5835 15.4002 29.5835Z" fill="#0A2973" stroke="#0A2973" stroke-width="1.5" stroke-linecap="round" stroke-linejoin="round"/>
    </symbol>
    <symbol id="cart" viewBox="0 0 31 31" fill="none">
        <path d="M5.43349 1.65869L8.35472 19.0956M5.43349 1.65869L29.1322 7.93818C29.5707 8.05437 29.8761 8.45118 29.8761 8.90482V15.9168C29.8761 16.4283 29.49 16.8574 28.9814 16.9113L8.35472 19.0956M5.43349 1.65869H0.900391M8.35472 19.0956L6.93159 22.9828C6.69269 23.6354 7.17575 24.3266 7.87064 24.3266H26.4836" stroke="#0A2973" stroke-width="1.5" stroke-linecap="round"/>
        <ellipse cx="7.08463" cy="28.2216" rx="1.10953" ry="1.37202" fill="#0A2973" stroke="#0A2973" stroke-width="1.5" stroke-linecap="round"/>
        <ellipse cx="25.9264" cy="28.2216" rx="1.10953" ry="1.37202" fill="#0A2973" stroke="#0A2973" stroke-width="1.5" stroke-linecap="round"/>
    </symbol>
    <symbol id="plus" viewBox="0 0 22 21">
        <path d="M10.8121 21C5.00375 21 0.294922 16.2989 0.294922 10.5C0.294922 4.70114 5.00375 0 10.8121 0C16.6204 0 21.3293 4.70114 21.3293 10.5C21.3293 16.2989 16.6204 21 10.8121 21ZM10.8121 19.0909C15.5644 19.0909 19.417 15.2446 19.417 10.5C19.417 5.75543 15.5644 1.90909 10.8121 1.90909C6.05976 1.90909 2.20713 5.75543 2.20713 10.5C2.20713 15.2446 6.05976 19.0909 10.8121 19.0909ZM11.7682 9.54545H15.1146C15.3681 9.54545 15.6113 9.64602 15.7906 9.82503C15.9699 10.004 16.0707 10.2468 16.0707 10.5C16.0707 10.7532 15.9699 10.996 15.7906 11.175C15.6113 11.354 15.3681 11.4545 15.1146 11.4545H11.7682V14.7955C11.7682 15.0486 11.6675 15.2914 11.4882 15.4704C11.3089 15.6494 11.0657 15.75 10.8121 15.75C10.5585 15.75 10.3153 15.6494 10.136 15.4704C9.95672 15.2914 9.85598 15.0486 9.85598 14.7955V11.4545H6.50961C6.25604 11.4545 6.01285 11.354 5.83354 11.175C5.65424 10.996 5.55351 10.7532 5.55351 10.5C5.55351 10.2468 5.65424 10.004 5.83354 9.82503C6.01285 9.64602 6.25604 9.54545 6.50961 9.54545H9.85598V6.20455C9.85598 5.95138 9.95672 5.70859 10.136 5.52958C10.3153 5.35057 10.5585 5.25 10.8121 5.25C11.0657 5.25 11.3089 5.35057 11.4882 5.52958C11.6675 5.70859 11.7682 5.95138 11.7682 6.20455V9.54545Z"/>
    </symbol>
    <symbol id="pdf" viewBox="0 0 24 23">
        <path d="M16.9194 11.5H14.0444C13.8538 11.5 13.671 11.5757 13.5362 11.7105C13.4014 11.8453 13.3257 12.0281 13.3257 12.2188V17.9688C13.3257 18.1594 13.4014 18.3422 13.5362 18.477C13.671 18.6118 13.8538 18.6875 14.0444 18.6875H16.9194C17.3007 18.6875 17.6663 18.536 17.9359 18.2665C18.2055 17.9969 18.3569 17.6312 18.3569 17.25V12.9375C18.3569 12.5563 18.2055 12.1906 17.9359 11.921C17.6663 11.6515 17.3007 11.5 16.9194 11.5ZM16.9194 17.25H14.7632V12.9375H16.9194V17.25Z"/>
        <path d="M23.3882 12.9375V11.5H19.7944C19.6038 11.5 19.421 11.5757 19.2862 11.7105C19.1514 11.8453 19.0757 12.0281 19.0757 12.2188V18.6875H20.5132V15.8125H23.3882V14.375H20.5132V12.9375H23.3882Z"/>
        <path d="M1.82568 20.8438V2.15626C1.82568 1.96564 1.90141 1.78282 2.0362 1.64803C2.17099 1.51324 2.35381 1.43751 2.54443 1.43751H13.3257V4.31251C13.3257 4.69376 13.4771 5.05939 13.7467 5.32898C14.0163 5.59856 14.3819 5.75001 14.7632 5.75001H17.6382V7.90626H19.0757V5.03126C19.0762 4.93667 19.0581 4.8429 19.0223 4.75533C18.9866 4.66776 18.9339 4.58811 18.8672 4.52095L14.5547 0.20845C14.4876 0.141835 14.4079 0.0891322 14.3204 0.0533639C14.2328 0.0175956 14.139 -0.000534879 14.0444 1.20134e-05H2.54443C1.97256 1.20134e-05 1.42411 0.227188 1.01973 0.631563C0.615359 1.03594 0.388184 1.58439 0.388184 2.15626L0.388184 20.8438C0.388184 21.4156 0.615359 21.9641 1.01973 22.3685C1.42411 22.7728 1.97256 23 2.54443 23H7.57568V21.5625H2.54443C2.35381 21.5625 2.17099 21.4868 2.0362 21.352C1.90141 21.2172 1.82568 21.0344 1.82568 20.8438Z"/>
        <path d="M11.1694 11.5H8.29443C8.10381 11.5 7.92099 11.5757 7.7862 11.7105C7.65141 11.8453 7.57568 12.0281 7.57568 12.2188V18.6875H9.01318V16.5312H11.1694C11.5507 16.5312 11.9163 16.3798 12.1859 16.1102C12.4555 15.8406 12.6069 15.475 12.6069 15.0938V12.9375C12.6069 12.5563 12.4555 12.1906 12.1859 11.921C11.9163 11.6515 11.5507 11.5 11.1694 11.5ZM11.1694 15.0938H9.01318V12.9375H11.1694V15.0938Z"/>
    </symbol>
</svg>
