<?xml version="1.0" encoding="UTF-8"?>
<svg width="175" height="40" viewBox="0 0 144 34" version="1.1" xmlns="http://www.w3.org/2000/svg" xmlns:xlink="http://www.w3.org/1999/xlink">
    <g id="Каталог-товаров" stroke="none" stroke-width="1" fill="none" fill-rule="evenodd">
        <g id="Каталог-товаров-Desktop-1440" transform="translate(-40.000000, -21.000000)">
            <g id="VTB-BusinesConnect_logo_ru_cmyk" transform="translate(40.000000, 21.000000)">
                <g id="Group-4">
                    <path d="M23.816,14.185 L1.603,14.185 L0,18.589 L22.213,18.589 L23.816,14.185 Z M26.217,7.58 L4.003,7.58 L2.4,11.984 L24.614,11.984 L26.217,7.58 Z M27.019,5.379 L4.805,5.379 L6.408,0.975 L28.622,0.975 L27.019,5.379 L27.019,5.379 Z" id="Fill-1" fill="#00A3DA"></path>
                    <path d="M46.804,19.922 L46.804,20.013 C47.81,20.379 48.77,21.019 49.272,21.43 C50.827,22.71 51.512,24.401 51.512,26.595 C51.512,30.206 49.592,32.812 46.438,33.634 C45.479,33.908 44.473,34 42.599,34 L33.046,34 L33.046,7.58 L41.502,7.58 C43.239,7.58 44.427,7.672 45.479,7.946 C48.541,8.769 50.552,10.871 50.552,14.208 C50.552,15.99 49.913,17.499 48.861,18.505 C48.404,18.962 47.764,19.51 46.804,19.922 Z M38.348,22.71 L38.348,29.657 L42.005,29.657 C43.102,29.657 44.107,29.566 44.839,28.881 C45.57,28.195 45.89,27.326 45.89,26.184 C45.89,25.315 45.661,24.492 45.204,23.898 C44.427,22.938 43.467,22.71 41.822,22.71 L38.348,22.71 Z M38.302,18.139 L41.273,18.139 C42.187,18.139 42.645,18.139 43.102,18.002 C44.336,17.636 45.113,16.539 45.113,15.031 C45.113,13.248 44.29,12.471 43.102,12.105 C42.599,11.968 42.096,11.923 41.09,11.923 L38.302,11.923 L38.302,18.139 Z M59.465,34 L59.465,12.014 L51.832,12.014 L51.832,7.58 L73.041,7.58 L71.533,12.014 L64.768,12.014 L64.768,34 L59.465,34 Z M74.687,34 L74.687,7.58 L91.873,7.58 L90.365,12.014 L79.943,12.014 L79.943,17.864 L84.194,17.864 C87.623,17.864 89.405,18.688 90.639,19.739 C91.599,20.562 93.245,22.39 93.245,26.001 C93.245,29.566 91.553,31.531 90.136,32.537 C88.491,33.68 86.754,34 83.234,34 L74.687,34 Z M79.943,29.566 L83.92,29.566 C85.428,29.566 86.342,29.2 86.982,28.378 C87.302,27.967 87.759,27.235 87.759,25.864 C87.759,24.492 87.302,23.532 86.388,22.847 C85.84,22.436 85.108,22.207 83.874,22.207 L79.943,22.207 L79.943,29.566 L79.943,29.566 Z" id="Fill-3" fill="#123063"></path>
                </g>
                <path d="M105.596904,5.31663097 L105.596904,6.50155017 L102.67283,6.50155017 L102.67283,7.89669697 L103.762191,7.89669697 C104.252724,7.89669697 104.652471,7.96836475 104.961444,8.11170247 C105.270416,8.25504019 105.512494,8.43500595 105.687684,8.65160517 C105.862875,8.86820439 105.982321,9.10231915 106.046027,9.35395647 C106.109733,9.60559379 106.141585,9.83970855 106.141585,10.0563078 C106.141585,10.2346836 106.106547,10.4353534 106.036471,10.6583232 C105.966395,10.881293 105.843763,11.0931111 105.668573,11.2937839 C105.493382,11.4944567 105.251305,11.6632741 104.942332,11.8002413 C104.63336,11.9372084 104.239983,12.005691 103.762191,12.005691 L101.315906,12.005691 L101.315906,5.31663097 L105.596904,5.31663097 Z M102.67283,10.954553 L103.51374,10.954553 C103.895974,10.954553 104.190608,10.8733295 104.397651,10.7108801 C104.604695,10.5484307 104.708215,10.2952045 104.708215,9.95119397 C104.708215,9.60718345 104.604695,9.35395728 104.397651,9.19150787 C104.190608,9.02905846 103.895974,8.94783497 103.51374,8.94783497 L102.67283,8.94783497 L102.67283,10.954553 Z M108.616537,5.31663097 L108.616537,8.75671897 L108.58787,10.381205 L108.616537,10.381205 L109.094327,9.40651337 L111.435498,5.31663097 L113.059984,5.31663097 L113.059984,12.005691 L111.703061,12.005691 L111.703061,8.55604717 L111.731728,6.94111697 L111.703061,6.94111697 L111.244382,7.95403177 L108.8841,12.005691 L107.259614,12.005691 L107.259614,5.31663097 L108.616537,5.31663097 Z M116.05095,12.0821374 C115.853462,12.0821374 115.671904,12.0725817 115.506269,12.05347 C115.340634,12.0343583 115.17978,12.0072838 115.023701,11.9722457 C114.867622,11.9372076 114.714731,11.8942069 114.565023,11.8432424 C114.415314,11.7922778 114.257645,11.7349436 114.092011,11.671238 L114.092011,10.4958746 C114.550691,10.6997327 114.932919,10.8319199 115.238707,10.8924403 C115.544494,10.9529606 115.792942,10.9832204 115.984059,10.9832204 C116.238882,10.9832204 116.452292,10.9529606 116.624298,10.8924403 C116.796303,10.8319199 116.931675,10.7570669 117.030419,10.667879 C117.129163,10.5786911 117.199238,10.483134 117.240647,10.381205 C117.282055,10.2792759 117.302759,10.1837189 117.302759,10.094531 C117.302759,9.83970836 117.247018,9.64381642 117.135533,9.50684927 C117.024048,9.36988212 116.895046,9.26954722 116.748523,9.20584157 C116.602,9.14213592 116.457072,9.1039131 116.313734,9.09117197 C116.170396,9.07843084 116.066876,9.07206037 116.003171,9.07206037 L115.190928,9.07206037 L115.190928,7.97314337 L116.003171,7.97314337 C116.347181,7.97314337 116.611556,7.89669773 116.796302,7.74380417 C116.981048,7.59091061 117.07342,7.38068511 117.07342,7.11312137 C117.07342,7.02393346 117.055901,6.93315427 117.020863,6.84078107 C116.985825,6.74840787 116.926898,6.66559177 116.844081,6.59233027 C116.761264,6.51906877 116.651373,6.45854931 116.514406,6.41077007 C116.377439,6.36299083 116.203843,6.33910157 115.993615,6.33910157 C115.655975,6.33910157 115.361341,6.37732439 115.109703,6.45377117 C114.858066,6.53021795 114.595284,6.63214547 114.32135,6.75955677 L114.32135,5.57463757 C114.486984,5.51730248 114.646246,5.46793134 114.79914,5.42652267 C114.952033,5.385114 115.106517,5.35007641 115.262596,5.32140887 C115.418675,5.29274133 115.579529,5.2720373 115.745164,5.25929617 C115.910799,5.24655504 116.089172,5.24018457 116.280289,5.24018457 C116.662523,5.24018457 116.996972,5.28159262 117.283648,5.36440997 C117.570323,5.44722732 117.807623,5.56348839 117.995555,5.71319667 C118.183487,5.86290495 118.323637,6.0412781 118.41601,6.24832147 C118.508383,6.45536484 118.554569,6.67992389 118.554569,6.92200537 C118.554569,7.26601589 118.46379,7.5781689 118.282229,7.85847377 C118.100668,8.13877864 117.82196,8.32989273 117.446096,8.43182177 L117.446096,8.46048917 C117.624472,8.492342 117.79329,8.54808361 117.952554,8.62771567 C118.111818,8.70734773 118.253561,8.81246048 118.377787,8.94305707 C118.502013,9.07365366 118.600755,9.23132278 118.674017,9.41606917 C118.747278,9.60081556 118.783908,9.81741153 118.783908,10.0658636 C118.783908,10.3843918 118.731352,10.6551368 118.626238,10.8781066 C118.521123,11.1010764 118.387344,11.2874126 118.224894,11.4371209 C118.062445,11.5868292 117.877701,11.7046828 117.670658,11.7906855 C117.463614,11.8766881 117.259759,11.9403928 117.059086,11.9818015 C116.858414,12.0232101 116.668892,12.0502846 116.490516,12.0630258 C116.312141,12.0757669 116.16562,12.0821374 116.05095,12.0821374 Z M121.19197,5.31663097 L121.19197,8.01136657 L123.905817,8.01136657 L123.905817,5.31663097 L125.262741,5.31663097 L125.262741,12.005691 L123.905817,12.005691 L123.905817,9.11028357 L121.19197,9.11028357 L121.19197,12.005691 L119.835046,12.005691 L119.835046,5.31663097 L121.19197,5.31663097 Z M130.594877,5.31663097 L130.594877,6.50155017 L127.957476,6.50155017 L127.957476,8.01136657 L130.355982,8.01136657 L130.355982,9.11028357 L127.957476,9.11028357 L127.957476,10.8207718 L130.594877,10.8207718 L130.594877,12.005691 L126.600553,12.005691 L126.600553,5.31663097 L130.594877,5.31663097 Z M134.980989,12.0821374 C134.566903,12.0821374 134.152822,12.0200253 133.738735,11.8957993 C133.324649,11.7715732 132.951976,11.5740887 132.620707,11.3033397 C132.289437,11.0325906 132.020285,10.6838074 131.813242,10.2569796 C131.606198,9.8301517 131.502678,9.31095843 131.502678,8.69938417 C131.502678,8.1260333 131.598235,7.6227662 131.789352,7.18956777 C131.980469,6.75636934 132.243251,6.39484519 132.577706,6.10498447 C132.91216,5.81512375 133.305537,5.59852779 133.757847,5.45519007 C134.210157,5.31185235 134.700683,5.24018457 135.22944,5.24018457 C135.497004,5.24018457 135.747045,5.25770336 135.979571,5.29274147 C136.212096,5.32777958 136.455767,5.38670642 136.710589,5.46952377 L136.710589,6.63533137 C136.513102,6.55888459 136.304469,6.49517989 136.084684,6.44421537 C135.8649,6.39325085 135.611674,6.36776897 135.324998,6.36776897 C134.949135,6.36776897 134.613093,6.42351058 134.316861,6.53499547 C134.02063,6.64648036 133.770589,6.80414948 133.566731,7.00800757 C133.362873,7.21186566 133.206796,7.45553612 133.098497,7.73902627 C132.990197,8.02251642 132.936048,8.33626205 132.936048,8.68027257 C132.936048,9.08161818 132.999753,9.42721615 133.127164,9.71707687 C133.254576,10.0069376 133.423393,10.242645 133.633622,10.4242061 C133.84385,10.6057672 134.087521,10.739547 134.36464,10.8255497 C134.64176,10.9115523 134.930024,10.954553 135.22944,10.954553 C135.573451,10.954553 135.8649,10.9179228 136.103796,10.8446613 C136.342692,10.7713998 136.544955,10.6965468 136.710589,10.6201 L136.710589,11.7954634 C136.411173,11.8973924 136.114946,11.9706528 135.8219,12.0152468 C135.528854,12.0598407 135.248553,12.0821374 134.980989,12.0821374 Z" id="БИЗНЕС" fill="#123063" fill-rule="nonzero"></path>
                <path d="M102.67283,16.4166482 L102.67283,19.2738324 L102.701497,19.2738324 L105.119114,16.4166482 L106.734045,16.4166482 L103.943751,19.4458368 L106.906049,23.1057082 L105.186005,23.1057082 L102.701497,19.7802898 L102.67283,19.7802898 L102.67283,23.1057082 L101.315906,23.1057082 L101.315906,16.4166482 L102.67283,16.4166482 Z M109.763233,16.3402018 C110.17732,16.3402018 110.580252,16.4039065 110.972042,16.5313178 C111.363832,16.6587292 111.712615,16.8609916 112.018402,17.1381111 C112.324189,17.4152307 112.571045,17.7703844 112.758976,18.2035828 C112.946908,18.6367813 113.040873,19.1559746 113.040873,19.7611782 C113.040873,20.3663819 112.946908,20.8855752 112.758976,21.3187736 C112.571045,21.7519721 112.324189,22.1071258 112.018402,22.3842453 C111.712615,22.6613649 111.363832,22.8636273 110.972042,22.9910386 C110.580252,23.11845 110.17732,23.1821546 109.763233,23.1821546 C109.349146,23.1821546 108.946214,23.11845 108.554424,22.9910386 C108.162635,22.8636273 107.813852,22.6613649 107.508064,22.3842453 C107.202277,22.1071258 106.955422,21.7519721 106.76749,21.3187736 C106.579558,20.8855752 106.485594,20.3663819 106.485594,19.7611782 C106.485594,19.1559746 106.579558,18.6367813 106.76749,18.2035828 C106.955422,17.7703844 107.202277,17.4152307 107.508064,17.1381111 C107.813852,16.8609916 108.162635,16.6587292 108.554424,16.5313178 C108.946214,16.4039065 109.349146,16.3402018 109.763233,16.3402018 Z M109.763233,17.2957818 C109.635822,17.2957818 109.468597,17.3180785 109.261554,17.3626724 C109.05451,17.4072664 108.850655,17.5123792 108.649982,17.6780138 C108.44931,17.8436485 108.277307,18.0905042 108.133969,18.4185883 C107.990632,18.7466725 107.918964,19.1941979 107.918964,19.7611782 C107.918964,20.3281586 107.990632,20.775684 108.133969,21.1037681 C108.277307,21.4318523 108.44931,21.678708 108.649982,21.8443426 C108.850655,22.0099773 109.05451,22.1150901 109.261554,22.159684 C109.468597,22.204278 109.635822,22.2265746 109.763233,22.2265746 C109.890645,22.2265746 110.057869,22.204278 110.264913,22.159684 C110.471956,22.1150901 110.675811,22.0099773 110.876484,21.8443426 C111.077157,21.678708 111.249159,21.4318523 111.392497,21.1037681 C111.535835,20.775684 111.607503,20.3281586 111.607503,19.7611782 C111.607503,19.1941979 111.535835,18.7466725 111.392497,18.4185883 C111.249159,18.0905042 111.077157,17.8436485 110.876484,17.6780138 C110.675811,17.5123792 110.471956,17.4072664 110.264913,17.3626724 C110.057869,17.3180785 109.890645,17.2957818 109.763233,17.2957818 Z M115.496713,16.4166482 L115.496713,19.1113838 L118.21056,19.1113838 L118.21056,16.4166482 L119.567484,16.4166482 L119.567484,23.1057082 L118.21056,23.1057082 L118.21056,20.2103008 L115.496713,20.2103008 L115.496713,23.1057082 L114.13979,23.1057082 L114.13979,16.4166482 L115.496713,16.4166482 Z M122.26222,16.4166482 L122.26222,19.1113838 L124.976067,19.1113838 L124.976067,16.4166482 L126.33299,16.4166482 L126.33299,23.1057082 L124.976067,23.1057082 L124.976067,20.2103008 L122.26222,20.2103008 L122.26222,23.1057082 L120.905296,23.1057082 L120.905296,16.4166482 L122.26222,16.4166482 Z M131.665127,16.4166482 L131.665127,17.6015674 L129.027726,17.6015674 L129.027726,19.1113838 L131.426232,19.1113838 L131.426232,20.2103008 L129.027726,20.2103008 L129.027726,21.920789 L131.665127,21.920789 L131.665127,23.1057082 L127.670802,23.1057082 L127.670802,16.4166482 L131.665127,16.4166482 Z M134.168746,16.4166482 L134.168746,19.2738324 L134.197414,19.2738324 L136.615031,16.4166482 L138.229961,16.4166482 L135.439668,19.4458368 L138.401966,23.1057082 L136.681922,23.1057082 L134.197414,19.7802898 L134.168746,19.7802898 L134.168746,23.1057082 L132.811823,23.1057082 L132.811823,16.4166482 L134.168746,16.4166482 Z M143.103419,16.4166482 L143.103419,17.6015674 L141.173148,17.6015674 L141.173148,23.1057082 L139.816224,23.1057082 L139.816224,17.6015674 L137.885953,17.6015674 L137.885953,16.4166482 L143.103419,16.4166482 Z" id="КОННЕКТ" fill="#123063" fill-rule="nonzero"></path>
            </g>
        </g>
    </g>
</svg>