<svg xmlns="http://www.w3.org/2000/svg"><symbol id="magnifier" viewBox="0 0 14 13"><path d="M13.2 11.44l-3.142-2.929c.843-.903 1.353-2.082 1.353-3.37C11.411 2.303 8.938 0 5.9 0 2.859 0 .388 2.307.388 5.14c0 2.834 2.474 5.14 5.512 5.14A5.724 5.724 0 009.514 9.02l3.141 2.93c.075.07.175.107.272.107a.391.391 0 00.273-.107.344.344 0 000-.508zM1.16 5.14C1.16 2.703 3.285.722 5.896.722c2.614 0 4.737 1.983 4.737 4.418 0 2.436-2.123 4.422-4.737 4.422-2.611 0-4.738-1.984-4.738-4.422z"/></symbol><symbol id="wallet" viewBox="0 0 34 31" fill="none"><path d="M29.854 16.549V9.265a1 1 0 00-1-1H1.818a1 1 0 00-1 1v19.318a1 1 0 001 1h27.036a1 1 0 001-1v-7.402" stroke="#0A2973" stroke-width="1.5"/><path stroke="#0A2973" stroke-width="1.5" stroke-linecap="round" stroke-linejoin="round" d="M20.075 15.856h12.743v6.135H20.075z"/><path d="M15.386 8.26l6.469-6.591 6.469 6.591" stroke="#0A2973" stroke-width="1.5" stroke-linejoin="round"/><path d="M11.69 8.26l6.468-6.591L20.17 3.71" stroke="#0A2973" stroke-width="1.5" stroke-linejoin="round"/><path d="M8.093 8.26l6.469-6.591 2.07 1.968" stroke="#0A2973" stroke-width="1.5" stroke-linejoin="round"/><ellipse cx="23.595" cy="18.755" rx="1.886" ry="1.921" fill="#0A2973"/></symbol><symbol id="bell" viewBox="0 0 31 31"><path d="M.871 26.009l-.422-.62a.75.75 0 00.422 1.37v-.75zM15.36 1.669v.75-.75zm14.488 24.34v.75a.75.75 0 00.422-1.37l-.422.62zM15.359.919c-3.188 0-5.516.954-7.176 2.508-1.644 1.539-2.562 3.6-3.068 5.699-1.001 4.145-.454 8.797-.454 10.371h1.5c0-1.842-.534-6.104.412-10.019.466-1.931 1.279-3.686 2.635-4.956 1.341-1.255 3.284-2.103 6.15-2.103l.001-1.5zM4.661 19.497c0 1.403-.954 2.846-2.065 4.022a15.294 15.294 0 01-2.14 1.865l-.007.005.422.62.423.62.002-.002.003-.002.013-.009a11.27 11.27 0 00.74-.56 16.796 16.796 0 001.634-1.507c1.16-1.226 2.475-3.038 2.475-5.052h-1.5zm-3.79 7.262H15.36v-1.5H.87v1.5zM15.36 2.419c2.867 0 4.81.848 6.15 2.103 1.357 1.27 2.17 3.025 2.636 4.956.945 3.915.412 8.177.412 10.019h1.5c0-1.574.547-6.226-.454-10.371-.507-2.099-1.424-4.16-3.068-5.7C20.875 1.874 18.547.92 15.359.92v1.5zm9.198 17.078c0 2.014 1.316 3.826 2.475 5.052a16.79 16.79 0 002.33 2.037l.044.03.012.009.004.002.001.001.424-.619a196.698 196.698 0 01.423-.62h-.002l-.007-.005-.032-.023a13.748 13.748 0 01-.62-.473c-.408-.329-.949-.8-1.487-1.369-1.111-1.176-2.065-2.62-2.065-4.022h-1.5zm5.29 5.762H15.359v1.5h14.488v-1.5z" fill="#0A2973"/><path d="M15.4 29.584c2.09 0 3.785-1.417 3.785-3.165h-7.57c0 1.748 1.695 3.165 3.785 3.165z" fill="#0A2973" stroke="#0A2973" stroke-width="1.5" stroke-linecap="round" stroke-linejoin="round"/></symbol><symbol id="cart" viewBox="0 0 31 31" fill="none"><path d="M5.433 1.659l2.922 17.437M5.433 1.659l23.7 6.28a1 1 0 01.743.966v7.012a1 1 0 01-.895.994L8.355 19.096M5.433 1.659H.9m7.455 17.437l-1.423 3.887a1 1 0 00.939 1.344h18.613" stroke="#0A2973" stroke-width="1.5" stroke-linecap="round"/><ellipse cx="7.085" cy="28.222" rx="1.11" ry="1.372" fill="#0A2973" stroke="#0A2973" stroke-width="1.5" stroke-linecap="round"/><ellipse cx="25.926" cy="28.222" rx="1.11" ry="1.372" fill="#0A2973" stroke="#0A2973" stroke-width="1.5" stroke-linecap="round"/></symbol><symbol id="plus" viewBox="0 0 22 21"><path d="M10.812 21C5.004 21 .295 16.299.295 10.5S5.004 0 10.812 0 21.33 4.701 21.33 10.5 16.62 21 10.812 21zm0-1.91c4.752 0 8.605-3.845 8.605-8.59 0-4.745-3.853-8.59-8.605-8.59-4.752 0-8.605 3.845-8.605 8.59 0 4.745 3.853 8.59 8.605 8.59zm.956-9.545h3.347a.957.957 0 01.956.955.954.954 0 01-.956.954h-3.347v3.341a.954.954 0 01-.956.955.957.957 0 01-.956-.954v-3.341H6.51a.957.957 0 01-.956-.955.954.954 0 01.956-.955h3.346v-3.34a.954.954 0 01.956-.955.957.957 0 01.956.955v3.34z"/></symbol><symbol id="pdf" viewBox="0 0 24 23"><path d="M16.92 11.5h-2.876a.719.719 0 00-.718.719v5.75a.719.719 0 00.718.718h2.875a1.438 1.438 0 001.438-1.437v-4.313a1.438 1.438 0 00-1.438-1.437zm0 5.75h-2.157v-4.313h2.156v4.313zM23.388 12.938V11.5h-3.594a.719.719 0 00-.718.719v6.469h1.437v-2.875h2.875v-1.438h-2.875v-1.438h2.875z"/><path d="M1.826 20.844V2.156a.719.719 0 01.718-.718h10.782v2.875a1.437 1.437 0 001.437 1.437h2.875v2.156h1.438V5.031a.72.72 0 00-.209-.51L14.555.208a.719.719 0 00-.51-.208h-11.5A2.156 2.156 0 00.387 2.156v18.688A2.156 2.156 0 002.544 23h5.032v-1.438H2.544a.719.719 0 01-.718-.718z"/><path d="M11.17 11.5H8.293a.719.719 0 00-.718.719v6.469h1.437V16.53h2.156a1.437 1.437 0 001.438-1.437v-2.156a1.438 1.438 0 00-1.438-1.438zm0 3.594H9.012v-2.156h2.156v2.156z"/></symbol></svg>