<svg width="175" height="40" viewBox="0 0 144 34" xmlns="http://www.w3.org/2000/svg"><g fill="none" fill-rule="evenodd"><path d="M23.816 14.185H1.603L0 18.589h22.213l1.603-4.404zm2.401-6.605H4.003L2.4 11.984h22.214l1.603-4.404zm.802-2.201H4.805L6.408.975h22.214l-1.603 4.404z" fill="#00A3DA"/><path d="M46.804 19.922v.091c1.006.366 1.966 1.006 2.468 1.417 1.555 1.28 2.24 2.971 2.24 5.165 0 3.611-1.92 6.217-5.074 7.039-.959.274-1.965.366-3.839.366h-9.553V7.58h8.456c1.737 0 2.925.092 3.977.366 3.062.823 5.073 2.925 5.073 6.262 0 1.782-.639 3.291-1.691 4.297a6.425 6.425 0 01-2.057 1.417zm-8.456 2.788v6.947h3.657c1.097 0 2.102-.091 2.834-.776.731-.686 1.051-1.555 1.051-2.697 0-.869-.229-1.692-.686-2.286-.777-.96-1.737-1.188-3.382-1.188h-3.474zm-.046-4.571h2.971c.914 0 1.372 0 1.829-.137 1.234-.366 2.011-1.463 2.011-2.971 0-1.783-.823-2.56-2.011-2.926-.503-.137-1.006-.182-2.012-.182h-2.788v6.216zM59.465 34V12.014h-7.633V7.58h21.209l-1.508 4.434h-6.765V34h-5.303zm15.222 0V7.58h17.186l-1.508 4.434H79.943v5.85h4.251c3.429 0 5.211.824 6.445 1.875.96.823 2.606 2.651 2.606 6.262 0 3.565-1.692 5.53-3.109 6.536C88.491 33.68 86.754 34 83.234 34h-8.547zm5.256-4.434h3.977c1.508 0 2.422-.366 3.062-1.188.32-.411.777-1.143.777-2.514 0-1.372-.457-2.332-1.371-3.017-.548-.411-1.28-.64-2.514-.64h-3.931v7.359z" fill="#123063"/><path d="M105.597 5.317v1.185h-2.924v1.395h1.09c.49 0 .89.071 1.198.215.31.143.551.323.727.54.175.216.294.45.358.702.064.252.096.486.096.702 0 .179-.035.38-.106.602-.07.223-.192.435-.367.636-.176.2-.418.37-.727.506-.309.137-.702.206-1.18.206h-2.446v-6.69h4.28zm-2.924 5.638h.84c.383 0 .678-.082.885-.244.207-.163.31-.416.31-.76 0-.344-.103-.597-.31-.76-.207-.162-.502-.243-.884-.243h-.841v2.007zm5.944-5.638v3.44l-.03 1.624h.03l.477-.974 2.341-4.09h1.625v6.689h-1.357v-3.45l.029-1.615h-.029l-.459 1.013-2.36 4.052h-1.624v-6.69h1.357zm7.434 6.765a4.619 4.619 0 01-1.486-.239c-.15-.05-.307-.108-.473-.172v-1.175c.459.204.84.336 1.147.396.305.061.554.091.745.091.255 0 .468-.03.64-.09a1.19 1.19 0 00.406-.225.792.792 0 00.273-.573c0-.255-.056-.451-.167-.588a1.024 1.024 0 00-.387-.301 1.399 1.399 0 00-.435-.115 3.97 3.97 0 00-.31-.019h-.813V7.973h.812c.344 0 .609-.076.793-.23.185-.152.277-.362.277-.63 0-.09-.017-.18-.052-.272a.629.629 0 00-.177-.249.98.98 0 00-.33-.181 1.604 1.604 0 00-.52-.072c-.338 0-.633.038-.884.115a6.041 6.041 0 00-.789.306V5.575c.166-.058.325-.107.478-.148.153-.042.308-.077.464-.106a4.64 4.64 0 01.482-.062 7 7 0 01.535-.019c.383 0 .717.042 1.004.124.286.083.524.2.712.35.187.149.328.327.42.534.092.207.139.432.139.674 0 .344-.091.656-.273.936-.181.28-.46.472-.836.574v.028c.178.032.347.088.507.168a1.456 1.456 0 01.721.788c.073.185.11.401.11.65 0 .318-.053.59-.158.812a1.783 1.783 0 01-.955.913c-.207.086-.411.15-.612.19-.2.042-.39.07-.568.082-.179.013-.325.02-.44.02zm5.141-6.765V8.01h2.714V5.317h1.357v6.689h-1.357V9.11h-2.714v2.896h-1.357v-6.69h1.357zm9.403 0v1.185h-2.638v1.51h2.399V9.11h-2.399v1.71h2.638v1.186H126.6v-6.69h3.994zm4.386 6.765c-.414 0-.828-.062-1.242-.186a3.203 3.203 0 01-1.118-.593 3.04 3.04 0 01-.808-1.046c-.207-.427-.31-.946-.31-1.558 0-.573.095-1.076.286-1.51a3.03 3.03 0 01.789-1.084 3.3 3.3 0 011.18-.65 4.847 4.847 0 011.471-.215c.268 0 .518.018.75.053.233.035.477.094.732.177v1.165a4.627 4.627 0 00-.626-.19 3.384 3.384 0 00-.76-.077c-.376 0-.712.056-1.008.167a2.08 2.08 0 00-.75.473c-.204.204-.36.448-.469.731a2.618 2.618 0 00-.162.941c0 .402.064.747.191 1.037.128.29.296.526.507.707.21.182.454.316.73.402a2.9 2.9 0 00.865.129c.344 0 .636-.037.875-.11.239-.074.441-.148.607-.225v1.175a5.17 5.17 0 01-.89.22 5.594 5.594 0 01-.84.067zM102.673 16.417v2.857h.028l2.418-2.857h1.615l-2.79 3.029 2.962 3.66h-1.72l-2.485-3.326h-.028v3.326h-1.357v-6.69h1.357zm7.09-.077c.414 0 .817.064 1.209.191.392.128.74.33 1.046.607.306.277.553.632.741 1.066.188.433.282.952.282 1.557s-.094 1.125-.282 1.558a3.05 3.05 0 01-.74 1.065c-.306.277-.655.48-1.047.607a3.885 3.885 0 01-1.209.191c-.414 0-.817-.064-1.209-.191a2.857 2.857 0 01-1.046-.607 3.05 3.05 0 01-.74-1.065c-.188-.433-.282-.953-.282-1.558 0-.605.094-1.124.281-1.557a3.05 3.05 0 01.741-1.066c.306-.277.655-.48 1.046-.607a3.885 3.885 0 011.21-.19zm0 .956c-.127 0-.294.022-.501.067-.207.044-.411.15-.612.315-.2.166-.373.413-.516.74-.143.329-.215.776-.215 1.343s.072 1.015.215 1.343c.143.328.315.575.516.74.2.166.405.271.612.316.207.044.374.067.501.067.128 0 .295-.023.502-.067.207-.045.41-.15.611-.316.201-.165.373-.412.516-.74.144-.328.216-.776.216-1.343s-.072-1.014-.216-1.342c-.143-.328-.315-.575-.516-.741-.2-.166-.404-.27-.611-.315a2.502 2.502 0 00-.502-.067zm5.734-.88v2.695h2.714v-2.694h1.356v6.689h-1.356V20.21h-2.714v2.896h-1.357v-6.69h1.357zm6.765 0v2.695h2.714v-2.694h1.357v6.689h-1.357V20.21h-2.714v2.896h-1.357v-6.69h1.357zm9.403 0v1.186h-2.637v1.51h2.398v1.098h-2.398v1.71h2.637v1.186h-3.994v-6.69h3.994zm2.504 0v2.858h.028l2.418-2.857h1.615l-2.79 3.029 2.962 3.66h-1.72l-2.485-3.326h-.028v3.326h-1.357v-6.69h1.357zm8.934 0v1.186h-1.93v5.504h-1.357v-5.504h-1.93v-1.185h5.217z" fill="#123063" fill-rule="nonzero"/></g></svg>